{"title":"Conviction.2010.480p.BRRip.XviD.AC3-MECK90","uid":6080252,"size":1944795158,"categoryP":"video","categoryS":"movies","magnet":"?xt=urn:btih:96f3a23ab9bde40cd8aed8366959da4d3cf951c2&amp;dn=Conviction.2010.480p.BRRip.XviD.AC3-MECK90&amp;tr=udp%3A%2F%2Ftracker.openbittorrent.com%3A80&amp;tr=udp%3A%2F%2Fopen.demonii.com%3A1337&amp;tr=udp%3A%2F%2Ftracker.coppersurfer.tk%3A6969&amp;tr=udp%3A%2F%2Fexodus.desync.com%3A6969","seeders":0,"leechers":0,"uploader":"SAFCukO09","files":34,"time":1294082293,"description":"[center][img]http://shareimage.ro/images/ib6ik0sw1vwy9sv9ron.jpg[/img][/center]\n\n[center]http://www.imdb.com/title/tt1244754/\n\nGeneral\nComplete name                    : Conviction.2010.480p.BRRip.XviD.AC3-MECK90.avi\nFormat                           : AVI\nFormat/Info                      : Audio Video Interleave\nFile size                        : 1.81 GiB\nDuration                         : 1h 47mn\nOverall bit rate                 : 2 422 Kbps\nWriting library                  : VirtualDub build 32593/release\n\nVideo\nID                               : 0\nFormat                           : MPEG-4 Visual\nFormat profile                   : Advanced Simple@L5\nFormat settings, BVOP            : Yes\nFormat settings, QPel            : No\nFormat settings, GMC             : No warppoints\nFormat settings, Matrix          : Default (MPEG)\nMuxing mode                      : Packed bitstream\nCodec ID                         : XVID\nCodec ID/Hint                    : XviD\nDuration                         : 1h 47mn\nBit rate                         : 1 965 Kbps\nWidth                            : 720 pixels\nHeight                           : 384 pixels\nDisplay aspect ratio             : 1.875\nFrame rate                       : 23.976 fps\nResolution                       : 8 bits\nColorimetry                      : 4:2:0\nScan type                        : Progressive\nBits/(Pixel*Frame)               : 0.296\nStream size                      : 1.47 GiB (81%)\nWriting library                  : XviD 1.2.1 (UTC 2008-12-04)\n\nAudio\nID                               : 1\nFormat                           : AC-3\nFormat/Info                      : Audio Coding 3\nFormat_Settings_ModeExtension    : CM (complete main)\nCodec ID                         : 2000\nDuration                         : 1h 47mn\nBit rate mode                    : Constant\nBit rate                         : 448 Kbps\nChannel(s)                       : 6 channels\nChannel positions                : Front: L C R, Side: L R, LFE\nSampling rate                    : 48.0 KHz\nStream size                      : 343 MiB (18%)\nAlignment                        : Aligned on interleaves\nInterleave, duration             : 42 ms (1.00 video frame)\nInterleave, preload duration     : 512 ms[/center]\n\n\n[center][img]http://shareimage.ro/images/lt3zd9rg502nsx86re3.jpg[/img][/center]\n[center][img]http://shareimage.ro/images/6ji21bya53ms0aq2zw8.jpg[/img][/center]\n[center][img]http://shareimage.ro/images/vlf58kf7g06mq4m68h0.jpg[/img][/center]","torrent":{"xt":"urn:btih:96f3a23ab9bde40cd8aed8366959da4d3cf951c2","amp;dn":"Conviction.2010.480p.BRRip.XviD.AC3-MECK90","amp;tr":["udp%3A%2F%2Ftracker.openbittorrent.com%3A80","udp%3A%2F%2Fopen.demonii.com%3A1337","udp%3A%2F%2Ftracker.coppersurfer.tk%3A6969","udp%3A%2F%2Fexodus.desync.com%3A6969"],"infoHash":"96f3a23ab9bde40cd8aed8366959da4d3cf951c2","infoHashBuffer":{"type":"Buffer","data":[150,243,162,58,185,189,228,12,216,174,216,54,105,89,218,77,60,249,81,194]},"announce":[],"urlList":[]}}